# xmcd CD database file
#
# Track frame offsets:
#	150
#	1872
#	16480
#	33570
#	53129
#	80391
#	91508
#	111298
#	139674
#	164811
#	184056
#	189942
#	218456
#	239115
#	261156
#	286776
#	292354
#	320888
#
# Disc length: 4630 seconds
#
# Revision: 0
# Processed by: cddbd v1.5.2PL0 Copyright (c) Steve Scherf et al.
# Submitted via: Feurio! 1.68 - http://www.feurio.com
#
DISCID=04121412
DTITLE=Bet Williams and Elizabeth Lee - Garbsen 2011 disc 2
DYEAR=1900
DGENRE=
TTITLE0=Bet Williams and Elizabeth Lee - Intro [Liz]
TTITLE1=Bet Williams and Elizabeth Lee - Honey Bee [Liz]
TTITLE2=Bet Williams and Elizabeth Lee - Everything's Alright [Liz]
TTITLE3=Bet Williams and Elizabeth Lee - She's So Lonely [Liz]
TTITLE4=Bet Williams and Elizabeth Lee - The Clown [Liz and Bet]
TTITLE5=Bet Williams and Elizabeth Lee - Hey Dao [Liz]
TTITLE6=Bet Williams and Elizabeth Lee - Have Love Will Travel [Liz]
TTITLE7=Bet Williams and Elizabeth Lee - Get It Up [Liz and Bet]
TTITLE8=Bet Williams and Elizabeth Lee - Up the East [Liz and Bet]
TTITLE9=Bet Williams and Elizabeth Lee - River's Invitation [Bet and Liz]
TTITLE10=Bet Williams and Elizabeth Lee - Super Summer Intro [Bet and Liz]
TTITLE11=Bet Williams and Elizabeth Lee - Super Summer [Bet and Liz]
TTITLE12=Bet Williams and Elizabeth Lee - Queen of the Water [Bet and Liz]
TTITLE13=Bet Williams and Elizabeth Lee - Killed My Man [Bet and Liz]
TTITLE14=Bet Williams and Elizabeth Lee - Let's Rock [Bet and Liz]
TTITLE15=Bet Williams and Elizabeth Lee - Thank Yous
TTITLE16=Bet Williams and Elizabeth Lee - Wild Horses [Bet and Liz]
TTITLE17=Bet Williams and Elizabeth Lee - Gimme Shelter [Bet and Liz]
EXTD=
EXTT0=
EXTT1=
EXTT2=
EXTT3=
EXTT4=
EXTT5=
EXTT6=
EXTT7=
EXTT8=
EXTT9=
EXTT10=
EXTT11=
EXTT12=
EXTT13=
EXTT14=
EXTT15=
EXTT16=
EXTT17=
PLAYORDER=
